<svg width="574" height="276" viewBox="0 0 574 276" fill="none" xmlns="http://www.w3.org/2000/svg">
<path d="M363.307 52.7937L356.95 46.4323C355.92 45.4024 354.25 45.4024 353.223 46.4305C351.539 48.1127 348.604 48.1127 346.924 46.4323C345.189 44.694 345.187 41.8693 346.922 40.1344C347.416 39.6406 347.694 38.9689 347.694 38.2698C347.694 37.57 347.416 36.9006 346.922 36.4051L342.686 32.1688C341.696 31.1789 339.944 31.1789 338.957 32.1688C337.273 33.8527 334.342 33.8509 332.661 32.1688C330.926 30.4323 330.926 27.6074 332.661 25.8727C333.691 24.8445 333.691 23.1726 332.661 22.1444L328.425 17.9081C327.435 16.9165 325.683 16.9205 324.697 17.9081C323.014 19.5902 320.083 19.592 318.4 17.9081C317.559 17.0664 317.095 15.9501 317.095 14.76C317.095 13.5716 317.559 12.4542 318.399 11.6137C318.894 11.12 319.172 10.4482 319.172 9.74911C319.172 9.04935 318.895 8.37819 318.4 7.88448L312.038 1.52364C311.049 0.533787 309.298 0.533787 308.31 1.52364L209.646 100.189C209.152 100.683 208.874 101.355 208.874 102.054C208.874 102.754 209.152 103.423 209.646 103.919L216.007 110.28C216.997 111.27 218.747 111.268 219.736 110.28C221.418 108.598 224.35 108.598 226.032 110.28C227.766 112.015 227.765 114.842 226.03 116.578C225.002 117.608 225.002 119.278 226.032 120.306L230.268 124.54C231.298 125.568 232.968 125.567 233.994 124.54C235.678 122.858 238.608 122.856 240.292 124.539C242.027 126.273 242.025 129.1 240.291 130.836C239.262 131.866 239.262 133.537 240.292 134.565L244.529 138.799C245.559 139.827 247.229 139.825 248.255 138.799C249.939 137.117 252.869 137.115 254.553 138.797C256.286 140.532 256.286 143.358 254.551 145.095C253.523 146.125 253.523 147.793 254.553 148.823L260.914 155.182C261.429 155.695 262.105 155.954 262.779 155.954C263.454 155.954 264.129 155.697 264.644 155.182L309.285 110.541C309.287 110.539 309.288 110.539 309.29 110.537L317.416 102.41L363.308 56.5219C364.338 55.4938 364.338 53.8242 363.308 52.7937L363.307 52.7937ZM262.778 149.595L259.887 146.705C261.961 143.002 261.425 138.217 258.28 135.073C256.444 133.237 254.002 132.226 251.406 132.226C249.711 132.226 248.083 132.656 246.646 133.465L245.626 132.445C247.7 128.742 247.164 123.957 244.019 120.813C242.183 118.976 239.741 117.965 237.145 117.965C235.451 117.965 233.823 118.396 232.385 119.205L231.365 118.185C233.439 114.48 232.903 109.697 229.759 106.553C227.924 104.716 225.48 103.704 222.882 103.704C221.188 103.704 219.56 104.134 218.124 104.943L215.236 102.055L256.154 61.1357L303.694 108.677L262.778 149.595ZM313.784 98.5878L307.425 104.947L259.927 57.4507L273.669 43.709L282.077 52.1199L282.079 52.1216H282.081L292.288 62.3286C292.289 62.3286 292.289 62.3303 292.289 62.3303H292.291L302.5 72.5389L312.71 82.7475L321.166 91.2036L313.784 98.5878ZM324.894 87.4773L318.303 80.8859L336.233 62.9529C337.263 61.923 337.263 60.2528 336.233 59.2247C335.203 58.1948 333.534 58.1948 332.505 59.2247L314.575 77.1577L308.092 70.675L326.022 52.7464C327.052 51.7182 327.052 50.048 326.022 49.0181C324.992 47.9883 323.324 47.9882 322.294 49.0181L304.364 66.9467L297.881 60.464L315.811 42.534C316.841 41.5058 316.841 39.8338 315.811 38.8057C314.781 37.7758 313.113 37.7758 312.083 38.8057L294.156 56.7372L287.675 50.2569L305.608 32.3283C306.638 31.2984 306.638 29.6282 305.608 28.5983C304.578 27.5684 302.91 27.5701 301.88 28.5983L283.945 46.5269L277.354 39.9355L310.173 7.11768L313.059 10.0037C312.251 11.4398 311.82 13.0694 311.82 14.7618C311.82 17.3594 312.832 19.8026 314.671 21.6398C316.506 23.4765 318.949 24.4892 321.548 24.4892C323.242 24.4892 324.87 24.0584 326.306 23.2499L327.323 24.2695C325.251 27.9714 325.787 32.756 328.932 35.9017C330.77 37.7384 333.213 38.7511 335.81 38.7511C337.502 38.7511 339.13 38.3203 340.566 37.5118L341.584 38.5297C339.512 42.2315 340.048 47.0162 343.193 50.1642C345.029 52.0009 347.471 53.0118 350.069 53.0118C351.763 53.0118 353.392 52.581 354.829 51.7742L357.715 54.6602L324.894 87.4773ZM243.222 103.122C243.222 108.367 245.265 113.299 248.974 117.007C252.681 120.715 257.611 122.756 262.856 122.756C268.101 122.756 273.034 120.714 276.742 117.005C284.395 109.348 284.395 96.8938 276.742 89.239C273.035 85.5302 268.103 83.4875 262.858 83.4875C257.615 83.4875 252.683 85.5301 248.974 89.2372C245.265 92.9438 243.222 97.8775 243.222 103.123V103.122ZM262.857 88.762C266.694 88.762 270.301 90.2559 273.013 92.9681C278.612 98.5662 278.612 107.679 273.013 113.278C270.3 115.991 266.691 117.486 262.856 117.486C259.02 117.486 255.413 115.992 252.701 113.28C249.988 110.568 248.494 106.959 248.494 103.124C248.494 99.2888 249.988 95.6818 252.701 92.9698C255.415 90.2561 259.022 88.762 262.857 88.762Z" fill="white"/>
<path fill-rule="evenodd" clip-rule="evenodd" d="M253.353 112.301C258.451 117.533 266.826 117.641 272.057 112.542C277.289 107.443 277.397 99.0691 272.298 93.8375C267.2 88.6059 258.825 88.4981 253.594 93.5967C248.362 98.6953 248.254 107.07 253.353 112.301ZM248.632 116.902C256.272 124.74 268.819 124.902 276.658 117.263C284.496 109.623 284.658 97.0757 277.019 89.2371C269.379 81.3984 256.832 81.2369 248.993 88.8763C241.154 96.5156 240.993 109.063 248.632 116.902Z" fill="#00FF7F"/>
<path d="M6.01151 252.053V197.889H11.9696V246.714H44.2358V252.053H6.01151ZM71.3438 252.904C66.7528 252.904 62.7808 251.95 59.4277 250.041C56.0747 248.081 53.4955 245.321 51.69 241.762C49.8846 238.202 48.9818 233.998 48.9818 229.149V197.889H54.9399V229.149C54.9399 232.863 55.6105 236.087 56.9517 238.821C58.2929 241.555 60.2015 243.67 62.6776 245.166C65.1537 246.662 68.0424 247.41 71.3438 247.41C74.6968 247.41 77.5856 246.662 80.0101 245.166C82.4861 243.67 84.3948 241.555 85.736 238.821C87.0772 236.087 87.7478 232.863 87.7478 229.149V197.889H93.7058V229.149C93.7058 233.998 92.7773 238.202 90.9203 241.762C89.1148 245.321 86.5355 248.081 83.1825 250.041C79.8811 251.95 75.9349 252.904 71.3438 252.904ZM130.081 252.904C126.161 252.904 122.498 252.207 119.093 250.815C115.689 249.37 112.697 247.384 110.118 244.857C107.538 242.277 105.527 239.311 104.082 235.958C102.689 232.554 101.993 228.891 101.993 224.971C101.993 221.05 102.689 217.414 104.082 214.061C105.527 210.656 107.538 207.69 110.118 205.162C112.697 202.583 115.689 200.597 119.093 199.204C122.498 197.76 126.161 197.038 130.081 197.038C132.918 197.038 135.626 197.399 138.206 198.121C140.836 198.791 143.261 199.797 145.479 201.139C147.749 202.428 149.761 204.027 151.514 205.936L147.568 210.114C145.453 207.69 142.848 205.833 139.753 204.543C136.658 203.202 133.434 202.531 130.081 202.531C126.934 202.531 124.02 203.099 121.337 204.234C118.655 205.369 116.308 206.968 114.296 209.031C112.336 211.043 110.788 213.416 109.653 216.15C108.57 218.832 108.028 221.772 108.028 224.971C108.028 228.117 108.57 231.058 109.653 233.792C110.788 236.526 112.362 238.924 114.373 240.988C116.385 243 118.732 244.573 121.415 245.708C124.149 246.843 127.089 247.41 130.236 247.41C133.589 247.41 136.787 246.765 139.83 245.476C142.874 244.134 145.427 242.303 147.491 239.982L151.36 244.006C149.554 245.863 147.517 247.462 145.247 248.803C143.029 250.144 140.63 251.176 138.051 251.898C135.472 252.569 132.815 252.904 130.081 252.904ZM160.388 252.053V197.889H166.346V223.578L194.357 197.889H202.172L172.768 224.429L202.791 252.053H194.434L166.346 226.054V252.053H160.388ZM224.685 252.053V230L203.174 197.889H210.138L227.857 224.739L245.499 197.889H252.231L230.643 230.232V252.053H224.685Z" fill="white"/>
<path d="M276.812 252.827C272.427 252.827 268.094 252.027 263.812 250.428C259.531 248.829 255.713 246.611 252.36 243.773L259.789 234.101C263.09 236.784 266.134 238.718 268.919 239.905C271.705 241.039 274.671 241.607 277.818 241.607C279.881 241.607 281.635 241.4 283.079 240.988C284.524 240.575 285.633 239.982 286.406 239.208C287.18 238.383 287.567 237.428 287.567 236.345C287.567 234.849 287 233.689 285.865 232.863C284.73 232.038 282.795 231.393 280.061 230.929L268.145 228.84C263.761 228.066 260.382 226.389 258.009 223.81C255.636 221.231 254.45 217.955 254.45 213.983C254.45 210.475 255.327 207.458 257.08 204.93C258.886 202.402 261.439 200.468 264.741 199.127C268.094 197.786 272.066 197.115 276.657 197.115C280.681 197.115 284.73 197.811 288.805 199.204C292.88 200.545 296.414 202.428 299.406 204.853L292.364 214.68C286.793 210.398 281.248 208.257 275.728 208.257C273.923 208.257 272.35 208.464 271.008 208.876C269.719 209.237 268.713 209.779 267.991 210.501C267.32 211.172 266.985 211.997 266.985 212.977C266.985 214.318 267.475 215.35 268.455 216.072C269.487 216.795 271.137 217.362 273.407 217.775L284.627 219.632C289.837 220.457 293.783 222.185 296.465 224.816C299.199 227.447 300.566 230.851 300.566 235.03C300.566 238.692 299.612 241.865 297.703 244.547C295.795 247.178 293.061 249.216 289.501 250.66C285.942 252.104 281.712 252.827 276.812 252.827ZM320.136 252.053V209.65H302.416V197.889H351.164V209.65H333.444V252.053H320.136ZM357.046 252.053V197.889H384.747C388.461 197.889 391.762 198.637 394.651 200.133C397.54 201.577 399.784 203.615 401.383 206.245C403.034 208.825 403.859 211.791 403.859 215.144C403.859 218.548 402.93 221.592 401.073 224.274C399.216 226.957 396.766 228.994 393.722 230.387L405.561 252.053H390.705L380.491 232.322H370.355V252.053H357.046ZM370.355 221.489H383.509C385.572 221.489 387.223 220.921 388.461 219.786C389.75 218.652 390.395 217.181 390.395 215.376C390.395 213.57 389.75 212.1 388.461 210.965C387.223 209.831 385.572 209.263 383.509 209.263H370.355V221.489ZM410.696 252.053V197.889H453.408V209.418H424.005V219.167H443.426V230.31H424.005V240.524H453.718V252.053H410.696ZM457.276 252.053L479.484 197.889H494.727L516.625 252.053H502.232L497.28 238.976H476.156L471.127 252.053H457.276ZM480.18 228.375H493.334L486.834 211.043L480.18 228.375ZM520.565 252.053V197.889H533.874V221.566L555.772 197.889H571.867L546.796 223.346L573.259 252.053H555.617L533.874 227.215V252.053H520.565Z" fill="#00FF7F"/>
</svg>
